<svg id="Layer_1" data-name="Layer 1" xmlns="http://www.w3.org/2000/svg" viewBox="0 0 6647.7051 2541.8194"><defs><style>.cls-1{fill:#fff;}</style></defs><title>DP Logo</title><path class="cls-1" d="M2779.036,2284.16,1537.89,134.4443a123.2053,123.2053,0,0,0-213.3977-.0052L83.3471,2284.16a123.2153,123.2153,0,0,0,106.7041,184.82H2672.3319a123.21,123.21,0,0,0,106.7041-184.82Zm-83.34,75.1a26.3927,26.3927,0,0,1-23.3643,13.4792H190.0512a26.9724,26.9724,0,0,1-23.3642-40.4478L1407.8325,182.5753a26.97,26.97,0,0,1,46.7181,0L2695.6755,2332.27a26.3926,26.3926,0,0,1,.0155,26.9892Z"/><path class="cls-1" d="M2962.7947,437.9572c-32.5268-28.83-76.4591-43.5095-130.5292-43.5095H2628.7638V962.1841h203.5017c54.07,0,98.0024-14.6794,130.5292-43.6153,32.9489-29.2529,49.6341-69.2773,49.6341-118.9121V556.8693C3012.4288,507.34,2995.7436,467.3159,2962.7947,437.9572ZM2931.113,792.7927c0,29.57-8.449,52.2743-25.7679,69.4881-17.4252,17.1081-40.5528,25.5571-70.7559,25.5571H2710.08V468.7945h124.51c30.6253,0,53.8586,8.3426,71.0724,25.4507,17.1081,17.2138,25.4514,40.2357,25.4514,70.3331Z"/><path class="cls-1" d="M3997.1956,887.7605q-141.9063.02-283.8127.0393-.0087-246.671-.0168-493.3418h-81.29V962.1454q182.56-.0122,365.119-.0239Z"/><path class="cls-1" d="M4396.4083,394.3955H3996.4138v75.1551h156.3156q.001,246.2978.0013,492.5954H4234.03l.0078-492.5954h162.3707Z"/><path class="cls-1" d="M4670.2277,441.02l-.1057-.4228q-7.6034-23.1277-15.2073-46.2553h-84.696q-92.6163,283.9211-185.2321,567.8421h85.3295q16.95-53.0139,33.8991-106.0279H4721.13q17.4246,53.0137,34.85,106.0279h85.33Q4755.768,701.602,4670.2277,441.02ZM4527.0264,784.9774l85.646-271.4062,86.28,271.4062Z"/><path class="cls-1" d="M3134.1706,394.4348V962.1254q188.3586-.0237,376.7173-.0471v-74.24H3215.5091V713.9049H3425.77V639.5587H3215.5091V468.7945h295.3788V394.4477Q3322.5293,394.4411,3134.1706,394.4348Z"/><path class="cls-1" d="M5813.62,1663.5113c.3172-2.4287.6336-5.1746.8451-8.2369C5814.2538,1657.5974,5814.0431,1660.3432,5813.62,1663.5113Z"/><path class="cls-1" d="M3446.3469,1297.022v-.0052c-28.0928-28.01-65.5395-41.938-110.69-41.8349l-212.6829.9655q.3769,277.8276.7541,555.6553H3177.05q.5889-124.607,1.1783-249.2144l157.5887-.8817c45.8776-.2579,83.3346-14.6085,111.3346-42.66,28.0206-28.0824,42.1082-65.328,41.8607-110.6952C3488.7645,1362.5357,3474.4087,1325.0786,3446.3469,1297.022Zm-38.54,188.172-.01.0052c-18.6564,19.3782-42.7941,28.8817-73.78,29.0518l-156.0571.8818-1.1706-209.2777,156.0521-.8766c30.8772-.2114,55.4636,9.3281,74.11,28.2268,18.6769,18.9657,28.2371,44.6091,28.4125,76.229C3435.5388,1440.5694,3426.2673,1466.0581,3407.807,1485.194Z"/><path class="cls-1" d="M4442.7533,1426.3828c-.1959-35.4976-8.1989-67.3392-23.7716-94.6327a162.761,162.761,0,0,0-66.2923-63.9461c-28.1959-14.98-60.9914-22.2916-97.4687-22.2659-36.4773.2063-69.0562,8.0648-96.84,23.3591a160.775,160.775,0,0,0-64.797,64.72c-15.0055,27.4688-22.5134,59.3774-22.3071,94.8492l1.1344,202.59c.196,35.4718,8.0648,67.303,23.3694,94.5965a160.7016,160.7016,0,0,0,65.5189,63.9822c27.5874,14.7889,59.7538,22.2814,95.633,22.2814.4847,0,.9694-.0052,1.4541-.0052,36.4876-.2062,69.2006-8.0648,97.2212-23.3539a162.6176,162.6176,0,0,0,65.57-64.6886c15.2736-27.4792,22.9156-59.4033,22.7094-94.8956ZM4390.25,1630.834c.2268,39.8084-11.8394,72.1811-35.8689,96.21v.0051c-24.0191,24.0759-56.4021,36.3948-96.2517,36.6165-.361.0052-.7219.0052-1.0726.0052-38.8183,0-70.5722-11.9477-94.3954-35.5233-24.05-23.7613-36.3638-56.0051-36.5907-95.8341l-1.1551-204.9308c-.2166-39.3391,11.7466-71.5932,35.5491-95.88,23.7613-24.2924,55.7318-36.72,95.0245-36.9413.361-.0052.7219-.0052,1.0829-.0052,39.3443,0,71.49,12.0766,95.5608,35.8946,24.3182,24.0191,36.7557,56.134,36.9723,95.4525Z"/><path class="cls-1" d="M5373.9672,1759.8436q-151.9665.0629-303.9336.1254-.5327-101.8875-1.0661-203.7748,109.3477-.5583,218.6948-1.117V1506.18q-109.4811.4955-218.9629.9913l-1.1448-202.3009,303.75-1.6669q-.0068-24.7918-.0129-49.5835H5016.3632q-.0058,278.1861-.011,556.3723h357.615Z"/><path class="cls-1" d="M6306.0513,1303.5243v-49.036H5929.12v49.036l160.4325-.0087v506.4965H6143.19V1303.5156Z"/><path class="cls-1" d="M3965.4153,1787.3872,3847.77,1548.8236c33.4768-6.7589,60.6175-22.8105,80.788-47.9447,21.1211-26.19,31.6817-58.9282,31.4709-97.3688-.3171-44.8824-14.4679-81.633-42.348-109.4074-27.7744-27.7743-64.42-41.3972-109.4074-41.5029q-104.3916.4756-208.7826,1.0558v558.1265h56.3937v-17.8474c0-.2114.105-.3171.105-.5279l-1.3729-239.6194,140.139-.7393,91.6657,186.6051c9.5048,19.326,18.9038,38.5464,28.4079,57.7667,2.3237,4.7517,4.6467,9.61,7.0754,14.3622h55.5487Q3971.4343,1799.5844,3965.4153,1787.3872Zm-311.1147-280.278-1.0558-203.8188,151.3326-.8451h.845c29.6752,0,54.1758,9.1883,72.6568,27.4579,18.5867,18.481,28.0908,43.51,28.3022,74.6633.1057,30.0974-9.0819,54.8094-27.5629,73.3961-18.6924,18.9032-42.5594,28.1966-73.08,28.3023Z"/><path class="cls-1" d="M4901.8377,1252.1021H4525.02v48.9671h157.9245v510.7335h53.6369V1301.0692h165.2565Z"/><path class="cls-1" d="M5846.147,1667.63c-3.0624,23.7612-9.8213,40.7636-11.6164,44.8824a168.3833,168.3833,0,0,1-9.3991,19.1146c-15.1015,25.9792-36.7505,46.5725-64.4192,61.1461-27.5636,14.4679-59.456,21.86-94.8343,22.0712h-1.4787c-35.3776,0-67.0593-7.0754-94.3058-21.0154-27.8794-14.2565-49.8456-34.85-65.2643-61.2512-15.3129-26.2957-23.1276-56.8159-23.3384-90.8213l-1.2672-220.399c-.2114-34.0048,7.3919-64.3135,22.3883-90.2928,15.1016-26.0843,36.8563-46.5718,64.525-61.1455,27.4572-14.5736,59.6668-21.9661,95.573-22.1775h1.4786c34.7441,0,66.2144,6.97,93.5665,20.5932a155.061,155.061,0,0,1,49.5292,38.2292c28.4079,32.8432,34.85,68.8551,37.3841,84.2738a193.5664,193.5664,0,0,1,2.218,41.2916c-17.53.6336-35.1669,1.3729-52.6972,1.9008-.1057-8.0262-.4228-14.9958-.9507-21.2269a125.2216,125.2216,0,0,0-3.9073-27.5629,116.63,116.63,0,0,0-17.1081-38.0178,114.1234,114.1234,0,0,0-15.2073-17.5309c-23.3384-21.86-54.5979-32.9489-92.9329-32.9489h-1.1615c-39.2856.2114-71.0731,11.617-94.4115,34.0053-23.1277,22.2827-34.85,52.0636-34.639,88.8142l1.2672,224.2007c.2115,36.6455,12.3564,66.5321,36.0119,88.8147,23.7613,22.2827,55.9709,33.899,94.4116,33.2654,38.8628-.2107,70.3331-11.722,93.673-34.3226a109.803,109.803,0,0,0,20.4364-27.0188,111.23,111.23,0,0,0,11.1388-30.7464c.3165-1.5844.6336-3.0624.845-4.541.3165-1.69.6336-3.5909.8444-5.7031.4228-3.1681.6336-5.9139.845-8.2369a3.5905,3.5905,0,0,0,.1057-1.0558,246.5265,246.5265,0,0,0,.3165-27.1408c17.7423.4222,35.59.7393,53.3314,1.1615A192.0127,192.0127,0,0,1,5846.147,1667.63Z"/><path class="cls-1" d="M6510.9872,1378.8644q-1.4608-3.5759-2.9037-7.1411l-6.5475-15.63c9.399-4.7524,14.2571-12.8836,14.2571-24.3949,0-8.2369-2.64-15.1015-7.92-20.4875-5.1752-5.4911-12.0392-8.2369-20.2768-8.2369l-33.5309.0309v93.1276h20.4321q-.0513-18.3828-.1019-36.7654h6.8647c.2114,0,.3164,0,.4221.2114l4.7524,12.6728q4.5414,11.9334,9.082,23.867h22.6Q6514.5359,1387.551,6510.9872,1378.8644Zm-18.4275-39.4571a9.6255,9.6255,0,0,1-7.3925,2.8516l-10.6663.2114-.1057-20.91h10.772c3.1681,0,5.5968.8444,7.3925,2.64s2.7459,4.4353,2.7459,7.92A10.2217,10.2217,0,0,1,6492.56,1339.4073Z"/><path class="cls-1" d="M6567.8567,1299.7a97.2561,97.2561,0,0,0-35.8005-35.589,101.4116,101.4116,0,0,0-99.6918,0,99.7277,99.7277,0,0,0-36.117,35.589,94.4373,94.4373,0,0,0-13.3064,49.1063,99.099,99.099,0,0,0,13.095,49.9519,96.8192,96.8192,0,0,0,36.0112,35.8,100.164,100.164,0,0,0,50.1627,13.095,98.4276,98.4276,0,0,0,49.8463-13.095,97.03,97.03,0,0,0,35.8005-35.8,98.1349,98.1349,0,0,0,13.2007-49.9519A95.6358,95.6358,0,0,0,6567.8567,1299.7Zm-19.7483,87.5469a73.7427,73.7427,0,0,1-27.4578,27.7744,76.3463,76.3463,0,0,1-104.5493-27.7744,74.5735,74.5735,0,0,1-10.2441-38.4406,71.8524,71.8524,0,0,1,10.2441-37.5956,76.3932,76.3932,0,0,1,132.0071-.1057,74.2541,74.2541,0,0,1,9.927,37.7013A77.2079,77.2079,0,0,1,6548.1084,1387.247Z"/></svg>